<svg xmlns="http://www.w3.org/2000/svg" viewBox="0 0 394 498"><defs><style>.cls-1{fill:#ff5c35;}.cls-2{fill:#003b4d;}</style></defs><title>Velox2</title><g id="Layer_3_copy" data-name="Layer 3 copy"><path class="cls-1" d="M304.82,87.4c-39.89-41.14-94.31-63.8-153.25-63.8H14.06V55.75H151.57c104.16,0,182.7,81.08,182.72,188.59,0,106.52-77.12,187.08-179.84,188.56v32.16c57.82-.73,111.12-23.32,150.37-63.79,39.72-40.95,61.6-96.7,61.62-157S344.54,128.36,304.82,87.4Z"/><path class="cls-2" d="M187.17,303.76a7.77,7.77,0,0,0-6.36-2c-15.8,2-35.37-6.12-46.86-18.89a1.83,1.83,0,0,0-2.68-.1l-8.35,8.35a2.24,2.24,0,0,0-.09,3.1c13.26,14.28,34.27,23.71,53.45,23.71a52.62,52.62,0,0,0,6.24-.36,8.15,8.15,0,0,0,7.22-7.46A8.06,8.06,0,0,0,187.17,303.76Z"/><path class="cls-2" d="M110.33,183.71A10.27,10.27,0,1,0,120.59,194,10.28,10.28,0,0,0,110.33,183.71Z"/><path class="cls-2" d="M233.25,183.46a10.26,10.26,0,1,0,10.26,10.26A10.27,10.27,0,0,0,233.25,183.46Z"/><path class="cls-2" d="M156.25,371.94a116.68,116.68,0,0,0,18.17-2.22c54.51-11.55,91.75-58.57,91.91-118.06a72.87,72.87,0,0,0-3.45-26l-.26-.82.78-.35a29.93,29.93,0,0,0,17.29-23.07l1.85-13.78a21.11,21.11,0,0,0-18-23.67,259.63,259.63,0,0,0-29.22-2.37h-.5l-.28-.42a29.13,29.13,0,0,0-24.69-13.44c-12.55,0-14.78,10.41-15,16.61l0,.53-1.13.69-.64-.09c-13.15-5.6-32.58-3.78-45.08.28l-.23.08-.25,0c-7.46-1.47-14.81-2.58-21.82-3.32l-.72-.08-.13-.71c-.75-4.15-3.75-11.39-15.45-13.27a50.69,50.69,0,0,0-44.83,15.06l-.24.25-.33.05c-3.85.56-7.87,1.26-12,2.06l-.16,0-.36,0H14.06l0,15.84,30.29.06L47,201.39a29.65,29.65,0,0,0,29.38,25.7h46.93a29.63,29.63,0,0,0,29.38-25.7L155.59,180l.63-.17c10.45-2.69,23.07-2.7,30,0l.31.12.17.28c6.95,11.34,15.63,26.28,21.08,41.31a50,50,0,0,1,2.06,13.29c0,14.16-13.27,25.4-27.18,23a23.45,23.45,0,0,1-13.75-7.38,3.62,3.62,0,0,0-5.26-.12l-7,7a2.2,2.2,0,0,0-.15,3,39.5,39.5,0,0,0,28.63,13.82c.37,0,1.31,0,1.42,0,20.67,0,38.21-16.75,39.21-36.28a94.09,94.09,0,0,0-.43-9.69l-.13-1.08h21.39l.23.63a57.61,57.61,0,0,1,3.68,22.66c-1.11,26-7.39,50.38-24.39,70.71C210,340.35,187,352.4,162.17,355.67h0c-28,3.57-55.2-4.87-77.14-23.53a2.38,2.38,0,0,0-3.26.11l-8,8a2.33,2.33,0,0,0,.11,3.39c17.51,15.18,37.94,24.63,59.89,27.7a117.67,117.67,0,0,0,22.44.64ZM137,199.28a13.79,13.79,0,0,1-13.62,11.91H76.42A13.79,13.79,0,0,1,62.8,199.28l-2.54-18.87.92-.15a230.9,230.9,0,0,1,77.4,0l.92.15Zm128,0a13.79,13.79,0,0,1-13.62,11.91H220.87l-.24-.6a238.6,238.6,0,0,0-15.18-30.08l-.72-1.23,1.41-.21c21.62-3.24,44.49-1,56.2.63a5.19,5.19,0,0,1,4.45,5.8Z"/></g></svg>